<?xml version="1.0" encoding="utf-8"?>
<!-- Generator: Adobe Illustrator 19.1.0, SVG Export Plug-In . SVG Version: 6.00 Build 0)  -->
<!DOCTYPE svg PUBLIC "-//W3C//DTD SVG 1.1//EN" "http://www.w3.org/Graphics/SVG/1.1/DTD/svg11.dtd">
<svg version="1.1" id="Layer_1" xmlns="http://www.w3.org/2000/svg" xmlns:xlink="http://www.w3.org/1999/xlink" x="0px" y="0px"
	 width="127.9px" height="300.4px" viewBox="0 0 127.9 300.4" style="enable-background:new 0 0 127.9 300.4;" xml:space="preserve"
	>
<style type="text/css">
	.st0{fill:#231F20;}
</style>
<path class="st0" d="M117.7,104.9L98.9,82.7l-2.2-10.3l-6.5-58.8C89.4,6.5,83.3,1,76.1,1H53.8c-7.5,0-13.7,5.8-14.2,13.2l-4.3,58.2
	l-1.8,10.4L11.7,105C3.3,113-0.9,124.3,0.2,135.8l14.6,148c0.6,6,5,10.9,10.8,12.2l2.8,0.6c11.3,2.5,22.8,3.8,34.3,3.8
	c12.3,0,24.7-1.4,36.7-4.3c5.7-1.3,9.9-6.1,10.6-11.9l17.6-149.3C128.9,123.9,125.3,113,117.7,104.9z M35.6,73.3h60.8l2,9.4H34
	L35.6,73.3z M88.2,132.2c-7.4,0.8-14.8,1.2-22.2,1.2c-6.6,0-13.3-0.3-19.9-1l-39-4l0.1-1l0.1-1l9.8,1l29.2,3
	c13.8,1.4,27.8,1.3,41.6-0.2l23.9-2.7l8.7-1l0.1,1l0.1,1L88.2,132.2z"/>
</svg>
