<?xml version="1.0" encoding="utf-8"?>
<!-- Generator: Adobe Illustrator 19.1.0, SVG Export Plug-In . SVG Version: 6.00 Build 0)  -->
<!DOCTYPE svg PUBLIC "-//W3C//DTD SVG 1.1//EN" "http://www.w3.org/Graphics/SVG/1.1/DTD/svg11.dtd">
<svg version="1.1" id="Layer_1" xmlns="http://www.w3.org/2000/svg" xmlns:xlink="http://www.w3.org/1999/xlink" x="0px" y="0px"
	 width="390px" height="44px" viewBox="0 0 390 44" style="enable-background:new 0 0 390 44;" xml:space="preserve">
<style type="text/css">
	.st0{fill:#231F20;}
</style>
<path class="st0" d="M373.9,5.2c-5.7,0-10.5,6.6-11.5,15.3H78.9C73.6,15.7,36.5-15.4,7.1,9.6c0,0-12.4,17.6,16.3,29.6
	c23.5,9.8,46.1-2,53.6-12h285.4c1,8.7,5.7,15.3,11.5,15.3c6.5,0,11.7-8.3,11.7-18.7C385.5,13.5,380.3,5.2,373.9,5.2z M78.8,24.3
	c0.3-0.6,0.5-1.3,0.6-1.8h7.1l-7.7,2.5V24.3z M84,25.3l8.8-2.9h4L88,25.3H84z M94.3,25.3l8.8-2.9h4l-8.8,2.9H94.3z M104.7,25.3
	l8.8-2.9h4l-8.8,2.9H104.7z M115,25.3l8.8-2.9h4l-8.8,2.9H115z M125.3,25.3l8.8-2.9h4l-8.8,2.9H125.3z M135.7,25.3l8.8-2.9h4
	l-8.8,2.9H135.7z M146,25.3l8.8-2.9h4l-8.8,2.9H146z M156.3,25.3l8.8-2.9h4l-8.8,2.9H156.3z M166.7,25.3l8.8-2.9h4l-8.8,2.9H166.7z
	 M177,25.3l8.8-2.9h4l-8.8,2.9H177z M187.3,25.3l8.8-2.9h4l-8.8,2.9H187.3z M197.7,25.3l8.8-2.9h4l-8.8,2.9H197.7z M208,25.3
	l8.8-2.9h4l-8.8,2.9H208z M218.3,25.3l8.8-2.9h4l-8.8,2.9H218.3z M228.7,25.3l8.8-2.9h4l-8.8,2.9H228.7z M239,25.3l8.8-2.9h4
	l-8.8,2.9H239z M249.3,25.3l8.8-2.9h4l-8.8,2.9H249.3z M259.6,25.3l8.8-2.9h4l-8.8,2.9H259.6z M270,25.3l8.8-2.9h4l-8.8,2.9H270z
	 M280.3,25.3l8.8-2.9h4l-8.8,2.9H280.3z M290.6,25.3l8.8-2.9h4l-8.8,2.9H290.6z M301,25.3l8.8-2.9h4l-8.8,2.9H301z M311.3,25.3
	l8.8-2.9h4l-8.8,2.9H311.3z M321.6,25.3l8.8-2.9h4l-8.8,2.9H321.6z M332,25.3l8.8-2.9h4l-8.8,2.9H332z M342.3,25.3l8.8-2.9h4
	l-8.8,2.9H342.3z M356.6,25.3h-4l8.8-2.9h4l-3.3,1.1L356.6,25.3z M362.2,25.5c0-0.1,0-0.2,0-0.2h0.7l7.7-2.5v2.5H363L362.2,25.5z"/>
</svg>
